<?xml version="1.0" encoding="utf-8"?>
<!-- Generator: Adobe Illustrator 26.0.3, SVG Export Plug-In . SVG Version: 6.00 Build 0)  -->
<svg version="1.1" id="Warstwa_1" xmlns="http://www.w3.org/2000/svg" xmlns:xlink="http://www.w3.org/1999/xlink" x="0px" y="0px"
	 viewBox="0 0 430 430" style="enable-background:new 0 0 430 430;" xml:space="preserve">
<style type="text/css">
	.st0{fill:#ebfad1;}
	.st1{fill:#3A3347;}
	.st2{fill:#F28BA8;}
	.st3{opacity:0.5;fill:#F28BA8;}
	.st4{fill:#242424;}
	.st5{fill:#B26836;}
	.st6{fill:#4BB3FD;}
	.st7{opacity:0.5;fill:#4BB3FD;}
	.st8{fill:#e5d1fa;}
	.st9{opacity:0.5;fill:#e5d1fa;}
	.st10{opacity:0.5;fill:#B26836;}
	.st11{opacity:0.5;}
	.st12{fill:#646E78;}
	.st13{opacity:0.5;fill:#646E78;}
	.st14{fill:#F9C9C0;}
	.st15{fill:#2CA58D;}
	.st16{opacity:0.5;fill:#F9C9C0;}
	.st17{opacity:0.5;fill:#2CA58D;}
	.st18{fill:#EBE6EF;}
	.st19{opacity:0.5;fill:#EBE6EF;}
	.st20{opacity:0.5;fill:#ebfad1;}
	.st21{opacity:0.5;fill:#3A3347;}
	.st22{fill:#F24C00;}
	.st23{opacity:0.5;fill:#F24C00;}
	.st24{fill:none;stroke:#242424;stroke-width:7;stroke-linecap:round;stroke-linejoin:round;stroke-miterlimit:10;}
	.st25{fill:none;}
	.st26{fill:none;stroke:#4BB3FD;stroke-width:7;stroke-linecap:round;stroke-linejoin:round;stroke-miterlimit:10;}
	.st27{fill:none;stroke:#3A3347;stroke-width:7;stroke-linecap:round;stroke-linejoin:round;stroke-miterlimit:10;}
</style>
<g>
	<g>
		<path class="st8" d="M354,347.9H76c-10,0-16.3-10.9-11.3-19.6l139-240.8c5-8.7,17.6-8.7,22.6,0l139,240.8
			C370.3,337,364.1,347.9,354,347.9z"/>
	</g>
</g>
<g class="st11">
	<g>
		<path class="st8" d="M105.2,347.9H76.4c-10,0-16.3-10.9-11.3-19.6l139-240.8c5-8.7,17.6-8.7,22.6,0l3.1,5.3l-136,235.5
			C88.9,337,95.1,347.9,105.2,347.9z"/>
	</g>
</g>
<g>
	<path class="st0" d="M230.9,300.5c0,8.8-7.1,15.9-15.9,15.9c-8.8,0-15.9-7.1-15.9-15.9c0-8.8,7.1-15.9,15.9-15.9
		C223.8,284.6,230.9,291.7,230.9,300.5z"/>
	<path class="st0" d="M234.4,187.5l-2.8,57.9c-0.4,7.4-6.5,13.2-13.8,13.2h-5.4c-7.4,0-13.5-5.8-13.8-13.2l-2.8-57.9
		c-0.5-9.4,7-17.2,16.4-17.2h6C227.4,170.3,234.8,178.2,234.4,187.5z"/>
	<g>
		<path class="st0" d="M234.4,187.5l-2.8,57.9c-0.4,7.4-6.5,13.2-13.8,13.2h-5.4c-7.4,0-13.5-5.8-13.8-13.2l-2.8-57.9
			c-0.5-9.4,7-17.2,16.4-17.2h6C227.4,170.3,234.8,178.2,234.4,187.5z"/>
		<path class="st0" d="M230.9,300.5c0,8.8-7.1,15.9-15.9,15.9c-8.8,0-15.9-7.1-15.9-15.9c0-8.8,7.1-15.9,15.9-15.9
			C223.8,284.6,230.9,291.7,230.9,300.5z"/>
	</g>
</g>
<g class="st11">
	<path class="st0" d="M221.1,315.1c-1.9,0.8-3.9,1.2-6.1,1.2c-8.8,0-15.9-7.1-15.9-15.9c0-8.8,7.1-15.9,15.9-15.9
		c2.1,0,4.2,0.4,6.1,1.2c-5.8,2.4-9.8,8-9.8,14.6C211.3,307.1,215.3,312.8,221.1,315.1z"/>
	<path class="st0" d="M221.1,258.2c-1.1,0.3-2.2,0.4-3.4,0.4h-5.4c-7.4,0-13.5-5.8-13.8-13.2l-2.8-57.9c-0.5-9.4,7-17.2,16.4-17.2h6
		c1.1,0,2.1,0.1,3.1,0.3c-7.9,1.5-13.7,8.6-13.3,16.9l2.8,57.9C210.9,251.6,215.3,256.7,221.1,258.2z"/>
	<g>
		<path class="st0" d="M221.1,258.2c-1.1,0.3-2.2,0.4-3.4,0.4h-5.4c-7.4,0-13.5-5.8-13.8-13.2l-2.8-57.9c-0.5-9.4,7-17.2,16.4-17.2
			h6c1.1,0,2.1,0.1,3.1,0.3c-7.9,1.5-13.7,8.6-13.3,16.9l2.8,57.9C210.9,251.6,215.3,256.7,221.1,258.2z"/>
		<path class="st0" d="M221.1,315.1c-1.9,0.8-3.9,1.2-6.1,1.2c-8.8,0-15.9-7.1-15.9-15.9c0-8.8,7.1-15.9,15.9-15.9
			c2.1,0,4.2,0.4,6.1,1.2c-5.8,2.4-9.8,8-9.8,14.6C211.3,307.1,215.3,312.8,221.1,315.1z"/>
	</g>
</g>
<g>
	<path class="st4" d="M354,351.9H76c-6,0-11.3-3.1-14.3-8.3s-3-11.4,0-16.5l139-240.8c3-5.2,8.3-8.3,14.3-8.3s11.3,3.1,14.3,8.3
		l139,240.8c3,5.2,3,11.4,0,16.5S360,351.9,354,351.9z M215,85.1c-3.4,0-6.5,1.8-8.3,4.8l-139,240.8c-1.7,3-1.7,6.5,0,9.5
		c1.7,3,4.8,4.8,8.3,4.8H354c3.4,0,6.5-1.8,8.3-4.8c1.7-3,1.7-6.5,0-9.5l-139-240.8C221.5,86.8,218.4,85.1,215,85.1z"/>
	<g>
		<path class="st4" d="M217.7,262.1h-5.4c-9.3,0-16.9-7.2-17.3-16.5l-2.8-57.9c-0.3-5.5,1.7-10.7,5.5-14.7c3.8-4,8.9-6.2,14.4-6.2h6
			c5.5,0,10.6,2.2,14.4,6.2s5.7,9.2,5.5,14.7l-2.8,57.9C234.6,254.8,227,262.1,217.7,262.1z M212,173.8c-3.6,0-6.9,1.4-9.3,4
			s-3.7,6-3.5,9.5l2.8,57.9c0.3,5.5,4.8,9.8,10.3,9.8h5.4c5.5,0,10.1-4.3,10.3-9.8l2.8-57.9c0.2-3.6-1.1-6.9-3.5-9.5
			c-2.5-2.6-5.8-4-9.3-4H212z"/>
		<path class="st4" d="M215,319.8c-10.7,0-19.4-8.7-19.4-19.4c0-10.7,8.7-19.4,19.4-19.4s19.4,8.7,19.4,19.4
			C234.4,311.2,225.7,319.8,215,319.8z M215,288.1c-6.8,0-12.4,5.5-12.4,12.4c0,6.8,5.5,12.4,12.4,12.4s12.4-5.5,12.4-12.4
			C227.4,293.7,221.8,288.1,215,288.1z"/>
	</g>
</g>
</svg>
