<?xml version="1.0" encoding="utf-8"?>
<!-- Generator: Adobe Illustrator 25.2.0, SVG Export Plug-In . SVG Version: 6.00 Build 0)  -->
<svg version="1.1" id="Warstwa_1" xmlns="http://www.w3.org/2000/svg" xmlns:xlink="http://www.w3.org/1999/xlink" x="0px" y="0px"
	 viewBox="0 0 430 430" style="enable-background:new 0 0 430 430;" xml:space="preserve">
<style type="text/css">
	.st0{fill:#545454;}
	.st1{fill:#e5d1fa;}
	.st2{opacity:0.5;fill:#e5d1fa;}
	.st3{fill:#92140C;}
	.st4{fill:#4BB3FD;}
	.st5{fill:#3A3347;}
	.st6{fill:#faf9d1;}
	.st7{fill:#646E78;}
	.st8{opacity:0.5;fill:#faf9d1;}
	.st9{opacity:0.5;fill:#3A3347;}
	.st10{fill:#FFC738;}
	.st11{fill:#B26836;}
	.st12{fill:#F28BA8;}
	.st13{opacity:0.5;fill:#F28BA8;}
	.st14{opacity:0.5;fill:#B26836;}
	.st15{opacity:0.5;fill:#646E78;}
	.st16{opacity:0.5;fill:#4BB3FD;}
	.st17{fill:#2CA58D;}
	.st18{opacity:0.5;fill:#2CA58D;}
	.st19{opacity:0.5;fill:#FFC738;}
	.st20{fill:#F9C9C0;}
	.st21{fill:none;stroke:#545454;stroke-width:7;stroke-linecap:round;stroke-linejoin:round;stroke-miterlimit:10;}
	.st22{opacity:0.5;}
	.st23{opacity:0.2;fill:#2CA58D;}
	.st24{fill:none;stroke:#e5d1fa;stroke-width:10;stroke-linecap:round;stroke-linejoin:round;stroke-miterlimit:10;}
	.st25{fill:none;stroke:#2CA58D;stroke-width:10;stroke-linecap:round;stroke-linejoin:round;stroke-miterlimit:10;}
	.st26{fill:none;stroke:#545454;stroke-width:10;stroke-linecap:round;stroke-linejoin:round;stroke-miterlimit:10;}
	.st27{fill:none;stroke:#faf9d1;stroke-width:7;stroke-linecap:round;stroke-linejoin:round;stroke-miterlimit:10;}
</style>
<g>
	<circle class="st1" cx="215" cy="215" r="160"/>
	<path class="st2" d="M289.03,356.85c-3.66,1.91-7.44,3.69-11.31,5.34c-81.3,34.64-175.27-3.18-209.91-84.48
		s3.18-175.27,84.48-209.91c3.87-1.65,7.77-3.14,11.69-4.46C90.55,101.56,57.82,190.49,90.81,267.92S210.61,383.33,289.03,356.85z"
		/>
	<path class="st0" d="M215.02,378.59c-20.66,0-41.32-3.97-61.06-11.91c-40.51-16.31-72.25-47.41-89.37-87.59
		c-35.34-82.94,3.39-179.17,86.33-214.5c82.94-35.34,179.17,3.39,214.5,86.33c17.12,40.18,17.57,84.62,1.26,125.13
		c-16.31,40.51-47.41,72.25-87.59,89.37C258.49,374.19,236.76,378.59,215.02,378.59z M214.79,58.5c-20.43,0-41.18,4.02-61.13,12.52
		C74.27,104.85,37.2,196.96,71.02,276.35c25.32,59.43,83.33,95.15,144.19,95.15c20.43,0,41.18-4.02,61.13-12.52
		c79.39-33.83,116.46-125.93,82.63-205.32C333.65,94.22,275.65,58.5,214.79,58.5z"/>
</g>
<g>
	<path class="st6" d="M256.07,264.27H211c-27.61,0-50.07-22.46-50.07-50.07c0-27.61,22.46-50.07,50.07-50.07
		s50.07,22.46,50.07,50.07v45.07C261.07,262.03,258.83,264.27,256.07,264.27z M211,174.13c-22.09,0-40.07,17.97-40.07,40.07
		s17.97,40.07,40.07,40.07h40.07V214.2C251.07,192.11,233.09,174.13,211,174.13z"/>
	<path class="st6" d="M215,326.75c-61.62,0-111.75-50.13-111.75-111.75S153.38,103.25,215,103.25S326.75,153.38,326.75,215
		c0,0.52-0.1,12.86-9.19,25.11c-8.17,11.02-25.48,24.15-61.49,24.15c-2.76,0-5-2.24-5-5s2.24-5,5-5c59.56,0,60.66-37.69,60.68-39.29
		c0-56.08-45.64-101.72-101.75-101.72S113.25,158.9,113.25,215S158.9,316.75,215,316.75c23.46,0,45.49-7.76,63.73-22.43
		c2.15-1.73,5.3-1.39,7.03,0.76c1.73,2.15,1.39,5.3-0.76,7.03C265.25,318,240.39,326.75,215,326.75z"/>
</g>
</svg>
