<?xml version="1.0" encoding="utf-8"?>
<!-- Generator: Adobe Illustrator 26.3.1, SVG Export Plug-In . SVG Version: 6.00 Build 0)  -->
<svg version="1.1" id="Warstwa_1" xmlns="http://www.w3.org/2000/svg" xmlns:xlink="http://www.w3.org/1999/xlink" x="0px" y="0px"
	 viewBox="0 0 430 430" style="enable-background:new 0 0 430 430;" xml:space="preserve">
<style type="text/css">
	.Styl_x0020_grafiki_x0020_224{opacity:0.5;fill:#d1faf0;}
	.Styl_x0020_grafiki_x0020_225{fill:#d1faf0;}
	.Styl_x0020_grafiki_x0020_226{opacity:0.5;fill:#ebe6ef;}
	.Styl_x0020_grafiki_x0020_230{fill:#ebe6ef;}
	.st0{fill:#646E78;}
	.st1{fill:none;stroke:#646E78;stroke-width:7;stroke-linecap:round;stroke-linejoin:round;stroke-miterlimit:10;}
	.st2{fill:#ebe6ef;}
	.st3{fill:#242424;}
	.st4{fill:#d1faf0;}
	.st5{fill:#92140C;}
	.st6{fill:#F24C00;}
	.st7{opacity:0.5;fill:#F24C00;}
	.st8{opacity:0.5;fill:#ebe6ef;}
	.st9{fill:#FFC738;}
	.st10{opacity:0.5;fill:#FFC738;}
	.st11{fill:#242424;stroke:#ebe6ef;stroke-width:7;stroke-linecap:round;stroke-linejoin:round;stroke-miterlimit:10;}
	.st12{fill:#4BB3FD;}
	.st13{opacity:0.5;fill:#4BB3FD;}
	.st14{fill:none;stroke:#242424;stroke-width:7;stroke-linecap:round;stroke-linejoin:round;stroke-miterlimit:10;}
	.st15{opacity:0.5;}
	.st16{fill:#242424;stroke:#4BB3FD;stroke-width:30;stroke-linecap:round;stroke-linejoin:round;stroke-miterlimit:10;}
	.st17{fill:none;stroke:#242424;stroke-width:12;stroke-linecap:round;stroke-linejoin:round;}
	.st18{fill:#2CA58D;}
	.st19{fill:none;stroke:#d4d1fa;stroke-width:12;stroke-linecap:round;stroke-linejoin:round;stroke-miterlimit:10;}
	.st20{opacity:0.5;fill:#2CA58D;}
	.st21{opacity:0.5;fill:#646E78;}
	.st22{fill:none;stroke:#FFC738;stroke-width:7;stroke-linecap:round;stroke-linejoin:round;stroke-miterlimit:10;}
	.st23{fill:#d1faf0;stroke:#242424;stroke-width:7;stroke-linecap:round;stroke-linejoin:round;stroke-miterlimit:10;}
	.st24{opacity:0.5;fill:#d1faf0;}
	.st25{fill:url(#SVGID_1_);}
	.st26{fill:url(#SVGID_00000035498034327292192740000004863635907467465651_);}
	.st27{fill:url(#SVGID_00000148634908174399628140000003737252234365914531_);}
	.st28{fill:#B26836;}
	.st29{opacity:0.5;fill:#92140C;}
	.st30{fill:#F28BA8;}
	.st31{fill:none;stroke:#ebe6ef;stroke-width:7;stroke-linecap:round;stroke-linejoin:round;stroke-miterlimit:10;}
	.st32{opacity:0.5;fill:#B26836;}
	.st33{fill:#d4d1fa;}
	.st34{fill:#FFFFFF;}
	.st35{fill:none;stroke:#B26836;stroke-width:7;stroke-linecap:round;stroke-linejoin:round;stroke-miterlimit:10;}
	.st36{opacity:0.99;fill:#ebe6ef;}
	.st37{fill:#F9C9C0;}
	.st38{opacity:0.5;fill:#F9C9C0;}
	.st39{opacity:0.5;fill:#F28BA8;}
	.st40{fill:none;stroke:#08A284;stroke-width:12;stroke-linecap:round;stroke-linejoin:round;stroke-miterlimit:10;}
	.st41{fill:none;stroke:#92140C;stroke-width:7;stroke-linecap:round;stroke-linejoin:round;stroke-miterlimit:10;}
	.st42{fill:none;stroke:#08A688;stroke-width:12;stroke-linecap:round;stroke-linejoin:round;stroke-miterlimit:10;}
	.st43{opacity:0.96;fill:#ebe6ef;}
	.st44{fill:none;stroke:#242424;stroke-width:12;stroke-linecap:round;stroke-linejoin:round;stroke-miterlimit:10;}
	.st45{fill:#d4d1fa;}
	.st46{fill:none;stroke:#2CA58D;stroke-width:7;stroke-linecap:round;stroke-linejoin:round;stroke-miterlimit:10;}
	.st47{fill:#242424;stroke:#FFC738;stroke-width:7;stroke-linecap:round;stroke-linejoin:round;stroke-miterlimit:10;}
	.st48{fill:#242424;stroke:#92140C;stroke-width:7;stroke-linejoin:round;stroke-miterlimit:10;}
	.st49{fill:none;stroke:#92140C;stroke-width:7;stroke-linejoin:round;stroke-miterlimit:10;}
	.st50{opacity:0.75;fill:#ebe6ef;}
	.st51{fill:#242424;stroke:#646E78;stroke-width:12;stroke-linecap:round;stroke-linejoin:round;stroke-miterlimit:10;}
	.st52{fill:#E94E12;}
	.st53{fill:#E84F16;}
	.st54{opacity:0.5;fill:#FFFFFF;}
</style>
<g>
	<path class="Styl_x0020_grafiki_x0020_230" d="M352.71,375.12H77.29c-12.38,0-22.41-10.03-22.41-22.41V77.29
		c0-12.38,10.03-22.41,22.41-22.41h275.42c12.38,0,22.41,10.03,22.41,22.41v275.42C375.12,365.09,365.09,375.12,352.71,375.12z"/>
	<path class="Styl_x0020_grafiki_x0020_226" d="M97.4,352.71V77.29c0-12.38,10.03-22.41,22.41-22.41H77.29
		c-12.38,0-22.41,10.03-22.41,22.41v275.42c0,12.38,10.03,22.41,22.41,22.41h42.52C107.43,375.12,97.4,365.09,97.4,352.71z"/>
	<path class="Styl_x0020_grafiki_x0020_225" d="M352.71,54.88H77.29c-12.38,0-22.41,10.03-22.41,22.41v28.97h320.24V77.29
		C375.12,64.91,365.09,54.88,352.71,54.88z"/>
	<path class="st3" d="M135,296.84c-0.9,0-1.79-0.34-2.47-1.02c-1.37-1.37-1.37-3.58,0-4.95l50.17-50.17l-50.17-50.17
		c-1.37-1.37-1.37-3.58,0-4.95c1.37-1.37,3.58-1.37,4.95,0l52.65,52.65c0.66,0.66,1.03,1.55,1.03,2.48s-0.37,1.82-1.03,2.48
		l-52.65,52.65C136.79,296.49,135.9,296.84,135,296.84z"/>
	<path class="st3" d="M303,296.84h-90.24c-1.93,0-3.5-1.57-3.5-3.5s1.57-3.5,3.5-3.5H303c1.93,0,3.5,1.57,3.5,3.5
		S304.93,296.84,303,296.84z"/>
	<path class="Styl_x0020_grafiki_x0020_224" d="M97.4,77.29c0-12.38,10.03-22.41,22.41-22.41H77.29
		c-12.38,0-22.41,10.03-22.41,22.41v28.97H97.4V77.29z"/>
	<g>
		<path class="st45" d="M143,86.57h-0.14c-3.31,0-6-2.69-6-6s2.69-6,6-6H143c3.31,0,6,2.69,6,6S146.31,86.57,143,86.57z"/>
		<path class="st45" d="M86.7,86.57h-0.14c-3.31,0-6-2.69-6-6s2.69-6,6-6h0.14c3.31,0,6,2.69,6,6S90.02,86.57,86.7,86.57z"/>
		<path class="st45" d="M114.85,86.57h-0.14c-3.31,0-6-2.69-6-6s2.69-6,6-6h0.14c3.31,0,6,2.69,6,6S118.17,86.57,114.85,86.57z"/>
	</g>
</g>
<path class="st3" d="M352.71,378.62H77.29c-14.29,0-25.91-11.62-25.91-25.91V77.29C51.38,63,63,51.38,77.29,51.38h275.42
	c14.29,0,25.91,11.62,25.91,25.91v275.42C378.62,367,367,378.62,352.71,378.62z M77.29,58.38c-10.43,0-18.91,8.48-18.91,18.91
	v275.42c0,10.43,8.48,18.91,18.91,18.91h275.42c10.43,0,18.91-8.48,18.91-18.91V77.29c0-10.43-8.48-18.91-18.91-18.91H77.29z"/>
<path class="st3" d="M373.12,109.75H54.88c-1.93,0-3.5-1.57-3.5-3.5s1.57-3.5,3.5-3.5h318.24c1.93,0,3.5,1.57,3.5,3.5
	S375.05,109.75,373.12,109.75z"/>
</svg>
