<?xml version="1.0" encoding="UTF-8" standalone="no"?> <svg xmlns="http://www.w3.org/2000/svg" width="512.002" height="481.845" viewBox="0 0 512.002 481.845">
  <g id="Layer_x0020_1" transform="translate(-194 -209.078)">
    <path id="Path_132" data-name="Path 132" d="M528.039,601.964a8,8,0,0,0,15.437-4.188l-26.9-98.792a8,8,0,0,0-15.437,4.188l26.9,98.792Zm-131.7-98.792a8,8,0,0,0-15.437-4.188L354,597.776a8,8,0,0,0,15.437,4.188l26.9-98.792Z" fill="#250e1e"/>
    <path id="Path_133" data-name="Path 133" d="M293.96,674.921H603.512a75.654,75.654,0,0,0-74.94-67.365H368.9a75.654,75.654,0,0,0-74.941,67.365Zm317.979,16H285.533a8,8,0,0,1-8-8h0A91.614,91.614,0,0,1,368.9,591.554H528.572a91.614,91.614,0,0,1,91.368,91.367h0a8,8,0,0,1-8,8Z" fill="#250e1e"/>
    <path id="Path_134" data-name="Path 134" d="M266,209.078H634a72.191,72.191,0,0,1,72,72v156a72.191,72.191,0,0,1-72,72H266a72.191,72.191,0,0,1-72-72v-156a72.191,72.191,0,0,1,72-72Zm368,16H266a56.182,56.182,0,0,0-56,56v156a56.182,56.182,0,0,0,56,56H634a56.182,56.182,0,0,0,56-56v-156a56.182,56.182,0,0,0-56-56Z" fill="#250e1e"/>
    <path id="Path_135" data-name="Path 135" d="M450,250.411a108.669,108.669,0,1,1-76.839,31.828A108.339,108.339,0,0,1,450,250.411Zm65.526,43.141a92.673,92.673,0,1,0,27.139,65.526A92.385,92.385,0,0,0,515.526,293.552Z" fill="#250e1e"/>
    <path id="Path_136" data-name="Path 136" d="M450,299.744a59.339,59.339,0,1,1-41.955,17.38A59.151,59.151,0,0,1,450,299.744Zm30.642,28.693a43.339,43.339,0,1,0,12.691,30.642A43.2,43.2,0,0,0,480.642,328.436Z" fill="#250e1e"/>
    <path id="Path_137" data-name="Path 137" d="M264.667,305.417a8,8,0,0,0-16,0v100a8,8,0,1,0,16,0Z" fill="#250e1e"/>
    <path id="Path_138" data-name="Path 138" d="M651.334,305.417a8,8,0,0,0-16,0v100a8,8,0,0,0,16,0Z" fill="#250e1e"/>
    <path id="Path_139" data-name="Path 139" d="M635.333,305.417a8,8,0,0,1,16,0v100a8,8,0,0,1-16,0ZM634,225.08H266a56.182,56.182,0,0,0-56,56v156a56.182,56.182,0,0,0,56,56H634a56.182,56.182,0,0,0,56-56v-156a56.182,56.182,0,0,0-56-56ZM526.839,282.24a108.664,108.664,0,1,0,31.828,76.839A108.339,108.339,0,0,0,526.839,282.24ZM256.667,297.416a8,8,0,0,1,8,8v100a8,8,0,0,1-16,0v-100A8,8,0,0,1,256.667,297.416Z" fill="#eef1f2" fill-rule="evenodd"/>
    <path id="Path_140" data-name="Path 140" d="M542.666,359.079A92.662,92.662,0,1,0,515.527,424.6,92.384,92.384,0,0,0,542.666,359.079ZM450,299.744a59.339,59.339,0,1,1-41.955,17.38A59.151,59.151,0,0,1,450,299.744Z" fill="#46a2ff" fill-rule="evenodd"/>
    <path id="Path_141" data-name="Path 141" d="M493.333,359.079a43.329,43.329,0,1,0-12.691,30.642A43.2,43.2,0,0,0,493.333,359.079Z" fill="#46a2ff" fill-rule="evenodd"/>
    <path id="Path_142" data-name="Path 142" d="M502.744,509.079H394.728l-22.46,82.475H525.2Z" fill="#46a2ff" fill-rule="evenodd"/>
    <path id="Path_143" data-name="Path 143" d="M528.572,607.556H368.9q-3.152,0-6.243.259c-.169.02-.339.034-.509.044a75.7,75.7,0,0,0-68.189,67.063H603.512a75.7,75.7,0,0,0-68.187-67.063c-.17-.009-.34-.024-.509-.044q-3.09-.257-6.243-.259Z" fill="#46a2ff" fill-rule="evenodd"/>
  </g>
</svg>
