<?xml version="1.0" encoding="iso-8859-1"?>
<!-- Generator: Adobe Illustrator 16.0.0, SVG Export Plug-In . SVG Version: 6.00 Build 0)  -->
<!DOCTYPE svg PUBLIC "-//W3C//DTD SVG 1.1//EN" "http://www.w3.org/Graphics/SVG/1.1/DTD/svg11.dtd">
<svg version="1.1" xmlns="http://www.w3.org/2000/svg" xmlns:xlink="http://www.w3.org/1999/xlink" x="0px" y="0px" width="512px"
	 height="512px" viewBox="0 0 512 512" style="enable-background:new 0 0 512 512;" xml:space="preserve">
<g id="_x32_3_x2C__API_x2C__Code_x2C__cog_x2C__setting_x2C__app">
	<g>
		<g>
			<path style="fill:#AFB9D2;" d="M454.5,25.86h-397c-17.4,0-31.5,14.1-31.5,31.5v48.5h460v-48.5C486,39.96,471.9,25.86,454.5,25.86
				z"/>
			<path style="fill:#D7DEED;" d="M26,105.86c0,10.136,0,339.904,0,348.5c0,17.39,14.1,31.5,31.5,31.5c18.018,0,380.26,0,397,0
				c17.4,0,31.5-14.11,31.5-31.5v-348.5H26z"/>
			<path style="fill:#57606F;" d="M246,371.21v25.3l-37.75,8.431c-2.46,11.06-6.82,21.34-12.68,30.609l20.72,32.72L198.7,485.86
				H57.5c-17.4,0-31.5-14.11-31.5-31.5V281.57h3.59l32.73,20.779c9.27-5.92,19.54-10.22,30.6-12.729l8.43-37.76h25.3l8.44,37.76
				c11.05,2.51,21.33,6.81,30.6,12.729l32.73-20.779l17.87,17.87l-20.72,32.729c5.86,9.271,10.22,19.55,12.68,30.61L246,371.21z"/>
			<rect x="136" y="55.86" width="20" height="20"/>
			<rect x="96" y="55.86" width="20" height="20"/>
			<rect x="56" y="55.86" width="20" height="20"/>
			<path d="M454.5,495.86h-397c-22.883,0-41.5-18.617-41.5-41.5v-397c0-22.884,18.617-41.5,41.5-41.5h397
				c22.883,0,41.5,18.616,41.5,41.5v397C496,477.243,477.383,495.86,454.5,495.86z M57.5,35.86c-11.855,0-21.5,9.645-21.5,21.5v397
				c0,11.855,9.645,21.5,21.5,21.5h397c11.855,0,21.5-9.645,21.5-21.5v-397c0-11.855-9.645-21.5-21.5-21.5H57.5z"/>
			<path d="M486,115.86H26c-5.523,0-10-4.478-10-10c0-5.523,4.477-10,10-10h460c5.522,0,10,4.477,10,10
				C496,111.383,491.522,115.86,486,115.86z"/>
			<path d="M198.42,496.14c-2.565,0-5.13-0.98-7.083-2.941c-3.898-3.912-3.887-10.243,0.025-14.142l12.198-12.198l-16.438-25.959
				c-2.067-3.264-2.069-7.428-0.004-10.693c5.394-8.531,9.219-17.762,11.372-27.437c0.842-3.786,3.797-6.743,7.582-7.589
				l29.93-6.684v-9.273l-29.929-6.684c-3.785-0.846-6.74-3.803-7.583-7.589c-2.151-9.674-5.977-18.905-11.371-27.438
				c-2.064-3.266-2.063-7.429,0.003-10.692l16.44-25.969l-6.545-6.545l-25.965,16.484c-3.279,2.08-7.468,2.075-10.742-0.015
				c-8.345-5.329-17.575-9.167-27.433-11.405c-3.766-0.855-6.702-3.802-7.544-7.57l-6.692-29.942h-9.274l-6.684,29.939
				c-0.842,3.771-3.78,6.719-7.547,7.573c-9.852,2.235-19.081,6.073-27.431,11.405c-3.274,2.091-7.462,2.096-10.742,0.015
				l-32.73-20.779c-4.663-2.96-6.042-9.14-3.083-13.802c2.96-4.664,9.14-6.045,13.802-3.083l27.54,17.484
				c6.938-3.852,14.302-6.911,22.004-9.142l7.097-31.789c1.021-4.571,5.077-7.821,9.76-7.821h25.3c4.683,0,8.738,3.249,9.759,7.818
				l7.106,31.792c7.706,2.232,15.069,5.291,22.005,9.142l27.54-17.484c3.954-2.51,9.121-1.94,12.431,1.371l17.87,17.87
				c3.308,3.309,3.88,8.468,1.378,12.42l-17.448,27.561c3.878,7.017,6.932,14.381,9.127,22.009l31.761,7.092
				c4.571,1.021,7.821,5.076,7.821,9.76v25.3c0,4.683-3.25,8.739-7.82,9.76l-31.761,7.093c-2.195,7.628-5.249,14.992-9.126,22.007
				l17.446,27.55c2.503,3.953,1.931,9.113-1.377,12.422l-17.883,17.882C203.527,495.168,200.973,496.14,198.42,496.14z"/>
			<path d="M216,155.86H76c-5.523,0-10-4.478-10-10c0-5.523,4.477-10,10-10h140c5.523,0,10,4.477,10,10
				C226,151.383,221.523,155.86,216,155.86z"/>
			<path d="M326,155.86h-70c-5.523,0-10-4.478-10-10c0-5.523,4.477-10,10-10h70c5.522,0,10,4.477,10,10
				C336,151.383,331.522,155.86,326,155.86z"/>
			<path d="M426,155.86h-60c-5.522,0-10-4.478-10-10c0-5.523,4.478-10,10-10h60c5.522,0,10,4.477,10,10
				C436,151.383,431.522,155.86,426,155.86z"/>
			<path d="M236,235.86h-70c-5.523,0-10-4.478-10-10c0-5.523,4.477-10,10-10h70c5.523,0,10,4.477,10,10
				C246,231.383,241.523,235.86,236,235.86z"/>
			<path d="M336,235.86h-60c-5.522,0-10-4.478-10-10c0-5.523,4.478-10,10-10h60c5.522,0,10,4.477,10,10
				C346,231.383,341.522,235.86,336,235.86z"/>
			<path d="M146,195.86H76c-5.523,0-10-4.478-10-10c0-5.523,4.477-10,10-10h70c5.523,0,10,4.477,10,10
				C156,191.383,151.523,195.86,146,195.86z"/>
			<path d="M426,195.86H186c-5.523,0-10-4.478-10-10c0-5.523,4.477-10,10-10h240c5.522,0,10,4.477,10,10
				C436,191.383,431.522,195.86,426,195.86z"/>
			<path d="M346,315.86h-70c-5.522,0-10-4.478-10-10s4.478-10,10-10h70c5.522,0,10,4.478,10,10S351.522,315.86,346,315.86z"/>
			<path d="M446,315.86h-60c-5.522,0-10-4.478-10-10s4.478-10,10-10h60c5.522,0,10,4.478,10,10S451.522,315.86,446,315.86z"/>
			<path d="M376,395.86h-80c-5.522,0-10-4.478-10-10s4.478-10,10-10h80c5.522,0,10,4.478,10,10S381.522,395.86,376,395.86z"/>
			<path d="M446,395.86h-30c-5.522,0-10-4.478-10-10s4.478-10,10-10h30c5.522,0,10,4.478,10,10S451.522,395.86,446,395.86z"/>
			<path d="M446,355.86H306c-5.522,0-10-4.478-10-10s4.478-10,10-10h140c5.522,0,10,4.478,10,10S451.522,355.86,446,355.86z"/>
			<path d="M446,435.86H266c-5.522,0-10-4.478-10-10s4.478-10,10-10h180c5.522,0,10,4.478,10,10S451.522,435.86,446,435.86z"/>
		</g>
	</g>
</g>
<g id="Layer_1">
</g>
</svg>
