<?xml version="1.0" encoding="UTF-8"?>
<!DOCTYPE svg PUBLIC "-//W3C//DTD SVG 1.1//EN" "http://www.w3.org/Graphics/SVG/1.1/DTD/svg11.dtd">
<!-- Creator: CorelDRAW -->
<svg xmlns="http://www.w3.org/2000/svg" xml:space="preserve" width="1.70666in" height="1.70666in" version="1.1" style="shape-rendering:geometricPrecision; text-rendering:geometricPrecision; image-rendering:optimizeQuality; fill-rule:evenodd; clip-rule:evenodd"
viewBox="0 0 1706.66 1706.66"
 xmlns:xlink="http://www.w3.org/1999/xlink"
 xmlns:xodm="http://www.corel.com/coreldraw/odm/2003">
 <defs>
  <style type="text/css">
   <![CDATA[
    .fil0 {fill:black}
   ]]>
  </style>
 </defs>
 <g id="Layer_x0020_1">
  <metadata id="CorelCorpID_0Corel-Layer"/>
  <path class="fil0" d="M1415.5 906.2l-1124.35 0c-94.7,0 -171.77,-77.07 -171.77,-171.77l0 -562.03c0,-94.7 77.07,-171.77 171.77,-171.77l1124.35 0c94.7,0 171.77,77.07 171.77,171.77l0 562.17c0,94.7 -77.07,171.63 -171.77,171.63zm-1124.35 -865.29c-72.46,0 -131.48,59.03 -131.48,131.49l0 562.17c0,72.46 59.03,131.48 131.48,131.48l1124.35 0c72.46,0 131.48,-59.03 131.48,-131.48l0 -562.17c0,-72.46 -58.89,-131.49 -131.48,-131.49l-1124.35 0z"/>
  <path class="fil0" d="M853.33 821.02c-202.68,0 -367.46,-164.92 -367.46,-367.46 0,-202.55 164.78,-367.6 367.46,-367.6 202.69,0 367.6,164.92 367.6,367.46 0,202.55 -164.92,367.6 -367.6,367.6zm0 -694.78c-180.44,0 -327.18,146.87 -327.18,327.31 0,180.44 146.74,327.18 327.18,327.18 180.44,0 327.18,-146.88 327.18,-327.32 0,-180.44 -146.73,-327.18 -327.18,-327.18z"/>
  <path class="fil0" d="M853.33 682.54c-126.31,0 -229.12,-102.81 -229.12,-229.12 0,-126.31 102.81,-229.12 229.12,-229.12 126.31,0 229.12,102.81 229.12,229.12 0,126.31 -102.81,229.12 -229.12,229.12zm0 -417.96c-104.07,0 -188.83,84.77 -188.83,188.84 0,104.07 84.76,188.84 188.83,188.84 104.07,0 188.84,-84.77 188.84,-188.84 0,-104.07 -84.77,-188.84 -188.84,-188.84z"/>
  <path class="fil0" d="M1383.75 721.7c-11.05,0 -20.14,-8.95 -20.14,-20.14l0 -496.57c0,-26.52 40.28,-26.52 40.28,0l0 496.57c0,11.05 -9.09,20.14 -20.14,20.14z"/>
  <path class="fil0" d="M322.63 721.7c-11.19,0 -20.14,-8.95 -20.14,-20.14l0 -496.57c0,-26.55 40.28,-26.55 40.28,0l0 496.57c0,11.05 -9.09,20.14 -20.14,20.14z"/>
  <path class="fil0" d="M1240.24 1706.03l-773.81 0c-11.19,0 -20.14,-9.09 -20.14,-20.14 0,-134.7 109.67,-244.37 244.37,-244.37l325.36 0c134.7,0 244.37,109.67 244.37,244.37 0,11.05 -9.09,20.14 -20.14,20.14zm-752.69 -40.28l731.43 0c-10.07,-103.09 -97.35,-183.94 -203.11,-183.94l-325.22 0c-105.75,0 -192.89,80.85 -203.11,183.94z"/>
  <path class="fil0" d="M1009.72 1481.81l-312.77 0c-11.19,0 -20.14,-9.09 -20.14,-20.14l0 -214.71c0,-11.05 8.95,-20.14 20.14,-20.14l312.63 0c11.05,0 20.14,9.09 20.14,20.14l0 214.71c0.15,11.05 -8.95,20.14 -20,20.14zm-292.63 -40.28l272.35 0 0 -174.43 -272.35 0 0 174.43z"/>
  <path class="fil0" d="M929.15 1267.09l-151.63 0c-11.19,0 -20.14,-9.09 -20.14,-20.14l0 -165.06c0,-11.05 8.95,-20.14 20.14,-20.14l151.63 0c11.05,0 20.15,9.09 20.15,20.14l0 165.06c0,11.05 -9.1,20.14 -20.15,20.14zm-131.49 -40.28l111.35 0 0 -124.78 -111.35 0 0 124.78z"/>
  <path class="fil0" d="M1012.09 1102.04l-317.39 0c-11.19,0 -20.14,-9.09 -20.14,-20.14l0 -195.83c0,-11.05 8.95,-20.14 20.14,-20.14l317.39 0c11.05,0 20.14,9.09 20.14,20.14l0 195.83c0,11.19 -9.09,20.14 -20.14,20.14zm-297.24 -40.28l277.1 0 0 -155.55 -277.1 0 0 155.55z"/>
 </g>
</svg>
